<svg xmlns="http://www.w3.org/2000/svg" width="1600" height="900" viewBox="0 0 1600 900" fill="none">
<rect width="1600" height="900" rx="32" fill="#101114"/>
<rect x="480" y="170" width="640" height="520" rx="28" fill="#171925" stroke="#79D4B8" stroke-width="3"/>
<text x="800" y="230" text-anchor="middle" fill="#F4F6FB" font-family="Inter, Arial, sans-serif" font-size="44" font-weight="700">Rodio</text>
<text x="800" y="275" text-anchor="middle" fill="#B8C0D9" font-family="Inter, Arial, sans-serif" font-size="24">local operator dashboard</text>
<g font-family="Inter, Arial, sans-serif">
  <rect x="565" y="325" width="190" height="110" rx="18" fill="#11131C" stroke="#2A3147"/>
  <text x="595" y="380" fill="#79D4B8" font-size="24" font-weight="700">runtime</text>
  <rect x="845" y="325" width="190" height="110" rx="18" fill="#11131C" stroke="#2A3147"/>
  <text x="885" y="380" fill="#7C5CFF" font-size="24" font-weight="700">tasks</text>
  <rect x="565" y="475" width="190" height="110" rx="18" fill="#11131C" stroke="#2A3147"/>
  <text x="602" y="530" fill="#FFD479" font-size="24" font-weight="700">cron</text>
  <rect x="845" y="475" width="190" height="110" rx="18" fill="#11131C" stroke="#2A3147"/>
  <text x="865" y="530" fill="#F6A3FF" font-size="24" font-weight="700">recent sessions</text>
</g>
<g font-family="Inter, Arial, sans-serif">
  <rect x="100" y="220" width="250" height="90" rx="18" fill="#171925" stroke="#2A3147"/>
  <text x="135" y="275" fill="#B8C0D9" font-size="24">scheduled jobs</text>
  <rect x="100" y="380" width="250" height="90" rx="18" fill="#171925" stroke="#2A3147"/>
  <text x="135" y="435" fill="#B8C0D9" font-size="24">agent sessions</text>
  <rect x="100" y="540" width="250" height="90" rx="18" fill="#171925" stroke="#2A3147"/>
  <text x="135" y="595" fill="#B8C0D9" font-size="24">task system</text>
  <rect x="1250" y="300" width="250" height="120" rx="18" fill="#171925" stroke="#2A3147"/>
  <text x="1285" y="355" fill="#F4F6FB" font-size="26" font-weight="700">truthful degraded state</text>
  <text x="1285" y="393" fill="#B8C0D9" font-size="22">show uncertainty instead</text>
</g>
<g stroke="#79D4B8" stroke-width="4" stroke-linecap="round">
  <path d="M350 265 C410 265 430 265 480 265"/>
  <path d="M350 425 C410 425 430 425 480 425"/>
  <path d="M350 585 C410 585 430 585 480 585"/>
  <path d="M1120 360 C1180 360 1200 360 1250 360"/>
</g>
<text x="100" y="105" fill="#F4F6FB" font-family="Instrument Serif, Georgia, serif" font-size="58">One surface for the state that actually matters</text>
</svg>